<?xml version="1.0" encoding="utf-8"?>
<!-- Generator: Adobe Illustrator 19.0.0, SVG Export Plug-In . SVG Version: 6.00 Build 0)  -->
<svg version="1.1" id="Warstwa_1" xmlns="http://www.w3.org/2000/svg" xmlns:xlink="http://www.w3.org/1999/xlink" x="0px" y="0px"
	 viewBox="0 0 841.9 350.6" style="enable-background:new 0 0 841.9 350.6;" xml:space="preserve">
<style type="text/css">
	.st0{fill:#F4953B;}
	.st1{fill:#60B2BC;}
	.st2{fill:#3E97A2;}
	.st3{fill:#FFF9E6;}
	.st4{fill:#E8DDC8;}
	.st5{fill:#108071;}
	.st6{fill:#69C0B1;}
	.st7{fill:#1C8472;}
	.st8{fill:#168A79;}
	.st9{fill:#1D9180;}
	.st10{fill:#6E3B30;}
	.st11{fill:#9F5841;}
	.st12{fill:#1E9E90;}
	.st13{fill:#34B4A5;}
	.st14{fill:#0A6C5E;}
	.st15{fill:#0C9982;}
	.st16{fill:#DDDBD9;}
	.st17{fill:#F7F5F0;}
</style>
<circle class="st0" cx="103.4" cy="78" r="24"/>
<polygon class="st1" points="328,239.9 0,239.8 0,121 0,195 64.3,118.8 136.7,201.7 181,158.9 216.7,210.8 278.2,103.8 322.1,186.6 
	386,141.3 436.5,174 490,118.9 531.8,149 580.5,75.4 647.1,159.3 675.8,123.1 728.5,164.3 772.3,110.4 833.3,182 841.9,190.3 
	841.9,227.5 841.9,242.3 "/>
<polygon class="st2" points="329,245.6 0,248.8 -0.3,227.7 94.8,208.2 64.3,118.8 157.2,225.2 195.7,219 181,158.9 226.5,225.1 
	305.8,207.9 278.2,103.8 333.2,206.8 374.4,216.1 395.3,204.7 421,204.3 386,141.2 478,200.7 501.7,188.7 550.3,202.8 490.1,118.8 
	553.5,164.5 573.1,178.7 629.7,185.3 580.6,75.3 676.3,196 683.3,171 712,184 675.8,123 783.8,208.2 801.8,197 772.3,110.4 
	841.9,190.3 841.9,242.3 "/>
<polygon class="st3" points="490.1,118.8 472,137.4 482.4,130.1 481,140.1 491.1,131 497.2,138.8 498.4,130.4 510.2,133.3 "/>
<polygon class="st3" points="386,141.2 367.3,154.5 378.2,150.6 376.3,159.8 386.9,152.7 394.1,160.7 392,152 407.2,154.9 "/>
<polygon class="st3" points="580.6,75.3 560.4,104.4 571.8,91.4 573.7,105.8 581.7,95.3 591.9,115.3 590.4,97.5 603.1,103.8 "/>
<polygon class="st3" points="278.2,103.8 261.1,133.4 274.4,120.8 275.6,136.8 279.2,123.9 284.7,144.2 283.5,123.8 294.9,135.1 "/>
<polygon class="st3" points="181,158.9 159,180.1 170.3,175.6 166.9,183 177.9,173.9 184.9,195.2 185,175.5 199.6,185.9 "/>
<polygon class="st3" points="64.3,118.8 43,144.1 54,136.1 50.6,143.5 59.3,136.3 69.6,145.6 69.3,133.8 87.4,145.3 "/>
<polygon class="st3" points="675.8,123 661.3,141.3 668.1,139.1 667.3,150 676.6,140.6 686.3,152.3 685.6,139.4 703.8,144.8 "/>
<polygon class="st3" points="772.3,110.4 757.4,128.8 763,125.2 762,134.1 770.2,127.5 776.2,137.6 777.1,124.5 793.4,134.6 "/>
<polygon class="st4" points="675.8,123 685.6,139.4 703.8,144.8 "/>
<polygon class="st4" points="580.6,75.3 590.4,97.5 603.1,103.8 "/>
<polygon class="st4" points="490.1,118.8 498.4,130.4 510.2,133.3 "/>
<polygon class="st4" points="386,141.2 392,152 407.2,154.9 "/>
<polygon class="st4" points="278.2,103.8 283.5,123.8 294.9,135.1 "/>
<polygon class="st5" points="189.1,229.9 193.8,229.9 184.1,214.7 187.3,214.7 171.5,190 155.7,214.7 158.9,214.7 149.2,229.9 
	153.9,229.9 142.3,248 171.5,248 200.6,248 "/>
<polygon class="st5" points="41.9,230.3 46.6,230.3 36.9,215.1 40.1,215.1 24.3,190.3 8.5,215.1 11.7,215.1 2,230.3 6.7,230.3 
	-4.8,248.4 24.3,248.4 53.5,248.4 "/>
<polygon class="st5" points="139.9,238.8 143.2,238.8 136.4,228.2 138.7,228.2 127.7,211 116.7,228.2 119,228.2 112.2,238.8 
	115.5,238.8 107.5,251.3 127.7,251.3 147.9,251.3 "/>
<polygon class="st5" points="115.1,238.8 118.3,238.8 111.6,228.2 113.8,228.2 102.8,211 91.8,228.2 94.1,228.2 87.3,238.8 
	90.6,238.8 82.6,251.3 102.8,251.3 123.1,251.3 "/>
<polygon class="st5" points="267.6,227.4 272.3,227.4 262.6,212.2 265.8,212.2 250,187.5 234.2,212.2 237.4,212.2 227.7,227.4 
	232.4,227.4 220.9,245.5 250,245.5 279.1,245.5 "/>
<polygon class="st5" points="301.4,233.6 304.5,233.6 298,223.5 300.2,223.5 289.7,207 279.1,223.5 281.3,223.5 274.8,233.6 
	277.9,233.6 270.3,245.6 289.7,245.6 309,245.6 "/>
<polygon class="st5" points="354,233.6 357.1,233.6 350.7,223.5 352.8,223.5 342.3,207 331.8,223.5 333.9,223.5 327.5,233.6 
	330.6,233.6 322.9,245.6 342.3,245.6 361.7,245.6 "/>
<polygon class="st5" points="426.9,250.7 430.1,250.7 423.6,240.6 425.7,240.6 415.2,224.1 404.7,240.6 406.9,240.6 400.4,250.7 
	403.5,250.7 395.9,262.7 415.2,262.7 434.6,262.7 "/>
<polygon class="st5" points="495.3,236.1 498.4,236.1 491.9,226 494.1,226 483.6,209.5 473,226 475.2,226 468.7,236.1 471.8,236.1 
	464.2,248.1 483.6,248.1 502.9,248.1 "/>
<polygon class="st5" points="443.5,238.5 446.6,238.5 440.2,228.4 442.3,228.4 431.8,211.9 421.3,228.4 423.4,228.4 417,238.5 
	420.1,238.5 412.4,250.5 431.8,250.5 451.2,250.5 "/>
<polygon class="st5" points="401.8,245.9 404.9,245.9 398.5,235.8 400.6,235.8 390.1,219.4 379.6,235.8 381.7,235.8 375.3,245.9 
	378.4,245.9 370.7,258 390.1,258 409.5,258 "/>
<polygon class="st5" points="519.4,233.6 522.5,233.6 516.1,223.5 518.2,223.5 507.7,207 497.2,223.5 499.3,223.5 492.9,233.6 
	496,233.6 488.3,245.6 507.7,245.6 527.1,245.6 "/>
<polygon class="st5" points="550.8,234.8 553.9,234.8 547.4,224.7 549.6,224.7 539.1,208.2 528.5,224.7 530.7,224.7 524.2,234.8 
	527.3,234.8 519.7,246.8 539.1,246.8 558.4,246.8 "/>
<polygon class="st5" points="573.9,238.5 577,238.5 570.5,228.4 572.7,228.4 562.2,211.9 551.7,228.4 553.8,228.4 547.3,238.5 
	550.5,238.5 542.8,250.5 562.2,250.5 581.6,250.5 "/>
<polygon class="st5" points="657.4,231.4 660.5,231.4 654,221.3 656.2,221.3 645.7,204.8 635.2,221.3 637.3,221.3 630.8,231.4 
	634,231.4 626.3,243.4 645.7,243.4 665.1,243.4 "/>
<polygon class="st5" points="706.9,231.4 710,231.4 703.6,221.3 705.7,221.3 695.2,204.8 684.7,221.3 686.8,221.3 680.4,231.4 
	683.5,231.4 675.8,243.4 695.2,243.4 714.6,243.4 "/>
<polygon class="st5" points="774.4,230.4 779.2,230.4 769.4,215.1 772.6,215.1 756.7,190.1 740.8,215.1 744,215.1 734.2,230.4 
	738.9,230.4 727.3,248.6 756.7,248.6 786.1,248.6 "/>
<polygon class="st5" points="811.1,235.2 815.8,235.2 806.1,219.8 809.3,219.8 793.4,194.9 777.4,219.8 780.7,219.8 770.9,235.2 
	775.6,235.2 764,253.4 793.4,253.4 822.7,253.4 "/>
<polygon class="st5" points="840.4,232.5 843.5,232.5 837,222.4 839.2,222.4 828.7,205.9 818.2,222.4 820.3,222.4 813.8,232.5 
	817,232.5 809.3,244.5 828.7,244.5 848,244.5 "/>
<polygon class="st5" points="726.3,236.8 729.4,236.8 722.9,226.7 725.1,226.7 714.6,210.2 704.1,226.7 706.2,226.7 699.7,236.8 
	702.9,236.8 695.2,248.8 714.6,248.8 733.9,248.8 "/>
<rect y="257.7" class="st6" width="841.9" height="92.9"/>
<polygon class="st5" points="213.7,185.1 191.8,243.4 213.7,243.4 235.6,243.4 "/>
<polygon class="st5" points="75.6,202 53.7,260.3 75.6,260.3 97.5,260.3 "/>
<polygon class="st5" points="322.1,187.3 300.2,245.6 322.1,245.6 344,245.6 "/>
<polygon class="st5" points="400.7,209.5 378.8,267.8 400.7,267.8 422.6,267.8 "/>
<polygon class="st5" points="585.8,195 563.9,253.3 585.8,253.3 607.7,253.3 "/>
<polygon class="st5" points="607.7,210.7 592.3,251.7 607.7,251.7 623.1,251.7 "/>
<polygon class="st5" points="665.1,214.2 649.7,255.1 665.1,255.1 680.4,255.1 "/>
<polygon class="st5" points="822.5,216.5 807.1,257.4 822.5,257.4 837.9,257.4 "/>
<polygon class="st5" points="841.9,267.8 0,267.8 0,238.7 295.9,244.5 425.3,243.3 841.9,238.7 "/>
<polygon class="st4" points="772.3,110.4 777.1,124.5 793.4,134.6 "/>
<polygon class="st7" points="467.5,256.1 470.6,256.1 464.2,246 466.3,246 455.8,229.5 445.3,246 447.4,246 441,256.1 444.1,256.1 
	436.4,268.1 455.8,268.1 475.2,268.1 "/>
<polygon class="st7" points="258.5,254.7 261.9,254.7 254.9,243.7 257.2,243.7 245.7,225.7 234.3,243.7 236.6,243.7 229.6,254.7 
	233,254.7 224.6,267.8 245.7,267.8 266.9,267.8 "/>
<polygon class="st7" points="39,252.7 42.9,252.7 34.8,240 37.5,240 24.3,219.4 11.1,240 13.8,240 5.7,252.7 9.6,252.7 0,267.8 
	24.3,267.8 48.6,267.8 "/>
<polygon class="st8" points="273,259.6 275.2,259.6 270.8,252.7 272.2,252.7 265.1,241.5 257.9,252.7 259.4,252.7 255,259.6 
	257.1,259.6 251.9,267.8 265.1,267.8 278.3,267.8 "/>
<polygon class="st8" points="59.5,256.8 62.3,256.8 56.5,247.7 58.4,247.7 48.9,232.8 39.4,247.7 41.3,247.7 35.5,256.8 38.3,256.8 
	31.4,267.7 48.9,267.7 66.4,267.7 "/>
<polygon class="st9" points="485.2,255.3 488.3,255.3 481.9,245.2 484,245.2 473.5,228.7 463,245.2 465.1,245.2 458.7,255.3 
	461.8,255.3 454.1,267.3 473.5,267.3 492.9,267.3 "/>
<polygon class="st9" points="163,251.9 167,251.9 158.7,238.9 161.4,238.9 147.9,217.8 134.4,238.9 137.2,238.9 128.9,251.9 
	132.9,251.9 123.1,267.3 147.9,267.3 172.8,267.3 "/>
<polygon class="st9" points="316.5,256.1 319.7,256.1 313.2,246 315.3,246 304.8,229.5 294.3,246 296.5,246 290,256.1 293.1,256.1 
	285.5,268.1 304.8,268.1 324.2,268.1 "/>
<polygon class="st9" points="139.4,256.1 142.5,256.1 136.1,246 138.2,246 127.7,229.5 117.2,246 119.3,246 112.9,256.1 116,256.1 
	108.3,268.1 127.7,268.1 147.1,268.1 "/>
<polygon class="st9" points="541.8,252.8 545.8,252.8 537.6,240.1 540.3,240.1 527.1,219.3 513.8,240.1 516.5,240.1 508.4,252.8 
	512.3,252.8 502.7,267.9 527.1,267.9 551.5,267.9 "/>
<polygon class="st7" points="629.6,256.1 632.6,256.1 626.3,246.1 628.4,246.1 618,229.8 607.6,246.1 609.7,246.1 603.4,256.1 
	606.5,256.1 598.9,267.9 618,267.9 637.1,267.9 "/>
<polygon class="st9" points="652.9,252.8 656.8,252.8 648.7,240.1 651.4,240.1 638.1,219.3 624.9,240.1 627.6,240.1 619.5,252.8 
	623.4,252.8 613.7,267.9 638.1,267.9 662.5,267.9 "/>
<g>
	<polygon class="st10" points="672,307.3 672,323 675.7,323 674.5,307.3 	"/>
	<polygon class="st11" points="672,307.3 672,323 668.3,323 669.5,307.3 	"/>
	<g>
		<polygon class="st12" points="672,254.6 652.2,307.3 672,307.3 691.8,307.3 		"/>
		<polygon class="st13" points="672,254.6 652.2,307.3 672,307.3 672,307.3 		"/>
	</g>
</g>
<polygon class="st9" points="757.4,227 742.1,267.9 757.4,267.9 772.8,267.9 "/>
<polygon class="st7" points="728.9,232 715.7,267.3 728.9,267.3 742.2,267.3 "/>
<polygon class="st7" points="571.7,232 558.4,267.3 571.7,267.3 584.9,267.3 "/>
<polygon class="st7" points="692.8,236.5 681.3,267.3 692.8,267.3 704.4,267.3 "/>
<polygon class="st9" points="775.4,211.7 754.4,267.6 775.4,267.6 796.4,267.6 "/>
<g>
	<polygon class="st10" points="707.1,298.7 707.1,325.1 713.3,325.1 711.3,298.7 	"/>
	<polygon class="st11" points="707.1,298.7 707.1,325.1 700.8,325.1 702.8,298.7 	"/>
	<g>
		<polygon class="st12" points="707.1,210.4 673.8,298.7 707.1,298.7 740.3,298.7 		"/>
		<polygon class="st13" points="707.1,210.4 673.8,298.7 707.1,298.7 707.1,298.7 		"/>
	</g>
</g>
<polygon class="st4" points="181,158.9 185,175.5 199.6,185.9 "/>
<polygon class="st4" points="64.3,118.8 69.3,133.8 87.4,145.3 "/>
<g>
	<polygon class="st10" points="580.4,272.6 580.4,299 586.6,299 584.6,272.6 	"/>
	<g>
		<polygon class="st14" points="580.4,164.3 625.8,192.6 633,232.6 605.5,272.6 580.4,272.6 		"/>
		<polygon class="st15" points="580.4,164.3 534.9,192.6 527.7,232.6 555.3,272.6 580.4,272.6 		"/>
		<polygon class="st11" points="580.4,272.6 580.4,299 574.2,299 576.1,272.6 		"/>
	</g>
	<polygon class="st10" points="510.4,278 510.4,295.3 514.5,295.3 513.2,278 	"/>
	<g>
		<polygon class="st14" points="510.4,206.8 540.3,225.4 545,251.7 526.9,278 510.4,278 		"/>
		<polygon class="st15" points="510.4,206.8 480.5,225.4 475.8,251.7 493.9,278 510.4,278 		"/>
		<polygon class="st11" points="510.4,278 510.4,295.3 506.3,295.3 507.6,278 		"/>
	</g>
</g>
<g>
	<path class="st16" d="M203.6,98.8c0.2-0.6,0.2-1.3,0.2-1.9c0-4.4-3.5-7.9-7.9-7.9c-0.9,0-1.8,0.2-2.6,0.5c-0.7-6.7-7.2-12-15.3-12
		c-7.8,0-14.3,5-15.2,11.5c0,0-0.1,0-0.1,0c-3.5,0-6.3,2.8-6.3,6.3c0,1.3,0.4,2.5,1.1,3.5h-1.2c-2.6,0-4.7,2.1-4.7,4.7v1.9
		c0,2.6,2.1,4.7,4.7,4.7h47.1c2.6,0,4.7-2.1,4.7-4.7v-1.9C208.1,100.9,206.1,98.9,203.6,98.8z"/>
	<path class="st17" d="M203.6,98.8c0.2-0.6,0.2-1.3,0.2-1.9c0-4.4-3.5-7.9-7.9-7.9c-0.9,0-1.8,0.2-2.6,0.5c-0.7-6.7-7.2-12-15.3-12
		c-7.8,0,0.9,32.2,25.3,32.7c2.5,0,4.7-2.1,4.7-4.7v-1.9C208.1,100.9,206.1,98.9,203.6,98.8z"/>
</g>
<g>
	<path class="st17" d="M678.7,67.4c0.2-0.6,0.2-1.3,0.2-1.9c0-4.4-3.5-7.9-7.9-7.9c-0.9,0-1.8,0.2-2.6,0.5c-0.7-6.7-7.2-12-15.3-12
		c-7.8,0-14.3,5-15.2,11.5c0,0-0.1,0-0.1,0c-3.5,0-6.3,2.8-6.3,6.3c0,1.3,0.4,2.5,1.1,3.5h-1.2c-2.6,0-4.7,2.1-4.7,4.7V74
		c0,2.6,2.1,4.7,4.7,4.7h47.1c2.6,0,4.7-2.1,4.7-4.7v-1.9C683.2,69.6,681.2,67.5,678.7,67.4z"/>
	<path class="st16" d="M678.7,67.4c0.2-0.6,0.2-1.3,0.2-1.9c0-4.4-3.5-7.9-7.9-7.9c-0.9,0-1.8,0.2-2.6,0.5c-0.7-6.7-7.2-12-15.3-12
		c-7.8,0,0.9,32.2,25.3,32.7c2.5,0,4.7-2.1,4.7-4.7v-1.9C683.2,69.6,681.2,67.5,678.7,67.4z"/>
</g>
<g>
	<polygon class="st10" points="82.6,276.8 82.6,293 86.4,293 85.2,276.8 	"/>
	<polygon class="st11" points="82.6,276.8 82.6,293 78.8,293 80,276.8 	"/>
	<g>
		<polygon class="st12" points="82.6,222.3 62.1,276.8 82.6,276.8 103.1,276.8 		"/>
		<polygon class="st13" points="82.6,222.3 62.1,276.8 82.6,276.8 82.6,276.8 		"/>
	</g>
</g>
<g>
	<polygon class="st10" points="109.5,279.2 109.5,293.1 112.8,293.1 111.7,279.2 	"/>
	<polygon class="st11" points="109.5,279.2 109.5,293.1 106.2,293.1 107.2,279.2 	"/>
	<g>
		<polygon class="st12" points="109.5,232.3 91.9,279.2 109.5,279.2 127.1,279.2 		"/>
		<polygon class="st13" points="109.5,232.3 91.9,279.2 109.5,279.2 109.5,279.2 		"/>
	</g>
</g>
</svg>
